<svg xmlns="http://www.w3.org/2000/svg" viewBox="0 0 105 117">
  <g transform="translate(0 4)">
    <path class="flame" fill="currentColor" d="M38.8253 97.2C34.3253 93 32.9253 84.4 34.8253 78.1C38.1253 82.1 42.6253 83.3 47.3253 84.1C54.5253 85.1 61.6253 84.7 68.3253 81.4L70.7253 80C71.3253 81.8 71.5253 83.7 71.2253 85.6C70.7253 90.1 68.4253 93.6 64.8253 96.3C63.4253 97.4 61.8253 98.3 60.3253 99.3C55.7253 102.5 54.5253 106.1 56.3253 111.4V112C54.1397 111.029 52.2941 109.427 51.0253 107.4C49.7056 105.305 49.0117 102.876 49.0253 100.4C49.0253 99.2 49.0253 97.9 48.8253 96.7C48.4253 93.7 47.0253 92.4 44.3253 92.3C43.0695 92.2285 41.8303 92.6147 40.8374 93.387C39.8445 94.1592 39.1652 95.2652 38.9253 96.5L38.8253 97.2Z"/>
    <path fill="currentColor" d="M15 77C15 77 27.6734 70.6 40.3468 70.6L49.8991 39.7815C50.2774 38.3046 51.3178 37.32 52.4527 37.32C53.6822 37.32 54.7226 38.3046 55.1009 39.7815L64.5586 70.6C79.691 70.6 90 77 90 77L68.4363 15.9538C67.8689 14.1815 66.8285 13 65.4098 13H39.5902"/>
  </g>

  <defs>
    <linearGradient id="gradient" x1="21" x2="64.6" y1="100" y2="79.4" gradientUnits="userSpaceOnUse">
      <stop stop-color="#D83333"/>
      <stop offset="1" stop-color="#F041FF"/>
    </linearGradient>
  </defs>

  <style>
    .flame { fill: url(#gradient); }
  </style>
</svg>
