<svg xmlns="http://www.w3.org/2000/svg" viewBox="0 0 57 40">
<path d="M28.4227 0C20.8435 0 16.1056 4.34199 14.2089 13.026C17.0518 8.6846 20.3677 7.0566 24.1567 8.14193C26.3187 8.75978 27.8653 10.5565 29.574 12.5465C32.3612 15.7873 35.5867 19.538 42.6316 19.538C50.2108 19.538 54.9476 15.1966 56.8421 6.51393C54.0003 10.8553 50.6849 12.4827 46.8959 11.3961C44.7323 10.7782 43.1857 8.98152 41.477 6.99153C38.6898 3.75257 35.4643 0 28.4227 0ZM14.2089 19.538C6.63191 19.538 1.89562 23.88 0 32.5639C2.84288 28.2226 6.15828 26.5946 9.94621 27.6799C12.1098 28.2978 13.6564 30.0945 15.3651 32.0845C18.1523 35.3253 21.3778 39.076 28.4227 39.076C36.0019 39.076 40.7382 34.7346 42.6316 26.0519C39.7898 30.3933 36.4744 32.0213 32.6854 30.9359C30.5234 30.3162 28.9768 28.5176 27.2665 26.5295C24.4809 23.2887 21.2538 19.538 14.2089 19.538Z" fill="#00BCFF"/>
</svg>
